<svg width="180" height="50" id="Layer_1" data-name="Layer 1" xmlns="http://www.w3.org/2000/svg" xmlns:xlink="http://www.w3.org/1999/xlink" viewBox="0 0 172.83 30.85"><defs><style>.cls-1{fill:#fff;}.cls-2{fill:url(#linear-gradient);}</style><linearGradient id="linear-gradient" x1="4.89" y1="23.58" x2="31.68" y2="23.58" gradientUnits="userSpaceOnUse"><stop offset="0" stop-color="#14e0cc"/><stop offset="1" stop-color="#00ff67"/></linearGradient></defs><title>ticketing</title><path class="cls-1" d="M40.11,31.11c-.61,0-.87-.27-.87-.87V18.41H35.7c-.6,0-.87-.26-.87-.87V14.63c0-.61.27-.87.87-.87H48.42c.6,0,.87.26.87.87v2.91c0,.61-.27.87-.87.87H44.88V30.24c0,.6-.27.87-.87.87Z" transform="translate(-4.89 -8.15)"/><path class="cls-1" d="M51.24,30.24V27.37c0-.6.27-.86.87-.86h2.38v-8.1H52.11c-.6,0-.87-.26-.87-.87V14.63c0-.61.27-.87.87-.87H62.37c.6,0,.87.26.87.87v2.91c0,.61-.27.87-.87.87H60v8.1h2.34c.6,0,.87.26.87.86v2.87c0,.6-.27.87-.87.87H52.11C51.51,31.11,51.24,30.84,51.24,30.24Z" transform="translate(-4.89 -8.15)"/><path class="cls-1" d="M71.87,31.11c-4.05,0-5.93-1.57-5.93-4.92V18.7c0-3.37,1.88-4.94,5.93-4.94h5.88c.6,0,.86.26.86.87v2.91c0,.61-.26.87-.86.87H72.9c-1,0-1.47.39-1.47,1.2v5.74c0,.79.46,1.16,1.47,1.16h4.85c.6,0,.86.26.86.86v2.87c0,.6-.26.87-.86.87Z" transform="translate(-4.89 -8.15)"/><path class="cls-1" d="M82.2,31.11c-.6,0-.86-.27-.86-.87V14.63c0-.61.26-.87.86-.87h3.74c.6,0,.87.26.87.87v5.54h1l2.48-5.61a1.13,1.13,0,0,1,1.21-.8h3.71c.55,0,.74.29.53.8l-2.46,5.61a3,3,0,0,1,3,3.28v6.79c0,.6-.26.87-.87.87h-3.7c-.61,0-.87-.27-.87-.87v-4.7a.72.72,0,0,0-.77-.82H86.81v5.52c0,.6-.27.87-.87.87Z" transform="translate(-4.89 -8.15)"/><path class="cls-1" d="M100.18,31.11c-.6,0-.87-.27-.87-.87V14.63c0-.61.27-.87.87-.87h11.18c.6,0,.87.26.87.87v2.82c0,.6-.27.86-.87.86h-6.65v1.86h4.7c.6,0,.87.26.87.87v2.57c0,.61-.27.87-.87.87h-4.7v2.07h6.65c.6,0,.87.27.87.87v2.82c0,.6-.27.87-.87.87Z" transform="translate(-4.89 -8.15)"/><path class="cls-1" d="M119.36,31.11c-.6,0-.87-.27-.87-.87V18.41H115c-.6,0-.87-.26-.87-.87V14.63c0-.61.27-.87.87-.87h12.72c.61,0,.87.26.87.87v2.91c0,.61-.26.87-.87.87h-3.54V30.24c0,.6-.26.87-.87.87Z" transform="translate(-4.89 -8.15)"/><path class="cls-1" d="M130.49,30.24V27.37c0-.6.27-.86.87-.86h2.39v-8.1h-2.39c-.6,0-.87-.26-.87-.87V14.63c0-.61.27-.87.87-.87h10.27c.6,0,.86.26.86.87v2.91c0,.61-.26.87-.86.87h-2.34v8.1h2.34c.6,0,.86.26.86.86v2.87c0,.6-.26.87-.86.87H131.36C130.76,31.11,130.49,30.84,130.49,30.24Z" transform="translate(-4.89 -8.15)"/><path class="cls-1" d="M146.33,31.11c-.61,0-.87-.27-.87-.87V14.63c0-.61.26-.87.87-.87h2.5a1.64,1.64,0,0,1,1.42.65l4.68,5.35V14.63c0-.61.26-.87.86-.87h3.62c.6,0,.87.26.87.87V30.24c0,.6-.27.87-.87.87h-3.62c-.6,0-.86-.27-.86-.87v-3l-4.12-5v8c0,.6-.27.87-.87.87Z" transform="translate(-4.89 -8.15)"/><path class="cls-1" d="M169.26,31.11c-4,0-5.92-1.57-5.92-4.92V18.68c0-3.35,1.88-4.92,5.92-4.92h6c.6,0,.86.26.86.87v2.91c0,.61-.26.87-.86.87h-5c-1,0-1.47.39-1.47,1.2v5.76c0,.82.36,1.18,1.1,1.18h2.34V22.79c0-.6.27-.86.87-.86h3.73c.61,0,.87.26.87.86v7.45c0,.6-.26.87-.87.87Z" transform="translate(-4.89 -8.15)"/><path class="cls-2" d="M4.91,20.8c0-3.89,0-7.78,0-11.67,0-.76.22-1,1-1,5.75,0,11.5,0,17.25,0A2.61,2.61,0,0,1,26,10.55c0,.18.34.45.55.48a2.46,2.46,0,0,1,2.22,2,.94.94,0,0,0,.62.53c1.69.4,2.26,1.07,2.26,2.81q0,8.76,0,17.51A5.08,5.08,0,0,1,26.56,39c-4.83,0-9.67,0-14.5,0a2,2,0,0,1-1.15-.44C9.1,37,7.33,35.42,5.53,33.88a1.69,1.69,0,0,1-.63-1.41c0-3.89,0-7.78,0-11.67Zm1.47-.12v10c0,1.1,0,1.11,1.14,1.11H23.21c1.15,0,1.39-.24,1.39-1.42V11.13c0-1.25-.23-1.47-1.52-1.47l-15.6,0c-1.1,0-1.1,0-1.1,1.14Zm4.18,15.41c.65.78,1,1.44,2,1.44,4.69,0,9.38,0,14.07,0a3.61,3.61,0,0,0,3.68-3.63c0-1.17,0-2.35,0-3.52V16.22c0-.69-.18-1.24-1-1.24s-.5.7-.5,1.11c0,5.23,0,10.46,0,15.69a4.07,4.07,0,0,1-4.23,4.31h-14Zm-3-2.78c.73.78,1.26,1.33,2.21,1.32,4.95,0,9.9,0,14.85,0a2.61,2.61,0,0,0,2.85-2.83c0-6,0-12.08,0-18.11,0-.65-.23-1.2-.92-1.22s-.52.69-.52,1.1c0,5.61,0,11.22,0,16.83,0,2-.88,2.89-2.86,2.9H7.54Z" transform="translate(-4.89 -8.15)"/></svg>
